<svg width="130" height="23" viewBox="0 0 130 23" fill="none" xmlns="http://www.w3.org/2000/svg">
<path d="M13.716 7.416H8.568V4.428C8.568 3.828 8.244 3.528 7.596 3.528H6.12C5.472 3.528 5.148 3.828 5.148 4.428V18.468C5.148 18.804 5.22 19.044 5.364 19.188C5.508 19.308 5.76 19.368 6.12 19.368H7.596C7.956 19.368 8.208 19.308 8.352 19.188C8.496 19.044 8.568 18.804 8.568 18.468V14.004H6.768V10.584H13.716V18.936C13.716 21.576 12.204 22.896 9.18 22.896H4.536C1.512 22.896 0 21.576 0 18.936V3.96C0 1.32 1.512 0 4.536 0H9.18C12.204 0 13.716 1.32 13.716 3.96V7.416Z" fill="white"/>
<path d="M21.026 0H25.85C28.874 0 30.386 1.32 30.386 3.96V18.9C30.386 21.564 28.874 22.896 25.85 22.896H21.026C17.978 22.896 16.454 21.564 16.454 18.9V3.96C16.454 1.32 17.978 0 21.026 0ZM25.238 18.216V4.68C25.238 4.08 24.926 3.78 24.302 3.78H22.574C21.926 3.78 21.602 4.08 21.602 4.68V18.216C21.602 18.816 21.926 19.116 22.574 19.116H24.302C24.926 19.116 25.238 18.816 25.238 18.216Z" fill="white"/>
<path d="M43.049 0H47.765V22.896H43.157L38.153 9.18V22.896H33.473V0H38.117L43.049 13.68V0Z" fill="white"/>
<path d="M64.5168 7.416H59.3688V4.428C59.3688 3.828 59.0448 3.528 58.3968 3.528H56.9208C56.2728 3.528 55.9488 3.828 55.9488 4.428V18.468C55.9488 18.804 56.0208 19.044 56.1648 19.188C56.3088 19.308 56.5608 19.368 56.9208 19.368H58.3968C58.7568 19.368 59.0088 19.308 59.1528 19.188C59.2968 19.044 59.3688 18.804 59.3688 18.468V14.004H57.5688V10.584H64.5168V18.936C64.5168 21.576 63.0048 22.896 59.9808 22.896H55.3368C52.3128 22.896 50.8008 21.576 50.8008 18.936V3.96C50.8008 1.32 52.3128 0 55.3368 0H59.9808C63.0048 0 64.5168 1.32 64.5168 3.96V7.416Z" fill="white"/>
<path d="M75.3547 18.216V14.076C75.3547 13.764 75.2827 13.548 75.1387 13.428C74.9947 13.284 74.7428 13.212 74.3828 13.212H71.2147C68.3827 13.212 66.9668 11.868 66.9668 9.18V3.96C66.9668 1.32 68.4787 0 71.5027 0H75.8947C78.9187 0 80.4307 1.32 80.4307 3.96V6.948H75.2827V4.68C75.2827 4.08 74.9587 3.78 74.3107 3.78H73.0867C72.4387 3.78 72.1147 4.08 72.1147 4.68V8.712C72.1147 9.024 72.1867 9.252 72.3307 9.396C72.4747 9.516 72.7267 9.576 73.0867 9.576H76.1827C77.7187 9.576 78.8228 9.912 79.4948 10.584C80.1668 11.232 80.5027 12.204 80.5027 13.5V18.9C80.5027 21.564 78.9908 22.896 75.9668 22.896H71.6107C68.5627 22.896 67.0387 21.564 67.0387 18.9V15.948H72.1867V18.216C72.1867 18.816 72.5107 19.116 73.1587 19.116H74.3828C75.0308 19.116 75.3547 18.816 75.3547 18.216Z" fill="white"/>
<path d="M95.4205 0V3.78H91.2085V22.896H86.0605V3.78H81.8845V0H95.4205Z" fill="white"/>
<path d="M107.651 22.896L106.859 18.756H101.639L100.847 22.896H95.7712L100.955 0H107.507L112.835 22.896H107.651ZM102.359 15.012H106.103L104.231 5.328L102.359 15.012Z" fill="white"/>
<path d="M119.726 14.328V22.896H114.614V0H124.046C127.07 0 128.582 1.32 128.582 3.96V10.368C128.582 12.48 127.622 13.752 125.702 14.184L129.734 22.896H124.226L120.626 14.328H119.726ZM119.726 3.78V10.692H122.498C122.834 10.692 123.074 10.632 123.218 10.512C123.362 10.368 123.434 10.14 123.434 9.828V4.68C123.434 4.08 123.122 3.78 122.498 3.78H119.726Z" fill="white"/>
</svg>
