<svg width="130" height="24" viewBox="0 0 130 24" fill="none" xmlns="http://www.w3.org/2000/svg">
<path d="M13.716 8.312H8.568V5.324C8.568 4.724 8.244 4.424 7.596 4.424H6.12C5.472 4.424 5.148 4.724 5.148 5.324V19.364C5.148 19.7 5.22 19.94 5.364 20.084C5.508 20.204 5.76 20.264 6.12 20.264H7.596C7.956 20.264 8.208 20.204 8.352 20.084C8.496 19.94 8.568 19.7 8.568 19.364V14.9H6.768V11.48H13.716V19.832C13.716 22.472 12.204 23.792 9.18 23.792H4.536C1.512 23.792 0 22.472 0 19.832V4.856C0 2.216 1.512 0.895996 4.536 0.895996H9.18C12.204 0.895996 13.716 2.216 13.716 4.856V8.312Z" fill="black"/>
<path d="M21.026 0.895996H25.85C28.874 0.895996 30.386 2.216 30.386 4.856V19.796C30.386 22.46 28.874 23.792 25.85 23.792H21.026C17.978 23.792 16.454 22.46 16.454 19.796V4.856C16.454 2.216 17.978 0.895996 21.026 0.895996ZM25.238 19.112V5.576C25.238 4.976 24.926 4.676 24.302 4.676H22.574C21.926 4.676 21.602 4.976 21.602 5.576V19.112C21.602 19.712 21.926 20.012 22.574 20.012H24.302C24.926 20.012 25.238 19.712 25.238 19.112Z" fill="black"/>
<path d="M43.049 0.895996H47.765V23.792H43.157L38.153 10.076V23.792H33.473V0.895996H38.117L43.049 14.576V0.895996Z" fill="black"/>
<path d="M64.5168 8.312H59.3688V5.324C59.3688 4.724 59.0448 4.424 58.3968 4.424H56.9208C56.2728 4.424 55.9488 4.724 55.9488 5.324V19.364C55.9488 19.7 56.0208 19.94 56.1648 20.084C56.3088 20.204 56.5608 20.264 56.9208 20.264H58.3968C58.7568 20.264 59.0088 20.204 59.1528 20.084C59.2968 19.94 59.3688 19.7 59.3688 19.364V14.9H57.5688V11.48H64.5168V19.832C64.5168 22.472 63.0048 23.792 59.9808 23.792H55.3368C52.3128 23.792 50.8008 22.472 50.8008 19.832V4.856C50.8008 2.216 52.3128 0.895996 55.3368 0.895996H59.9808C63.0048 0.895996 64.5168 2.216 64.5168 4.856V8.312Z" fill="black"/>
<path d="M75.3547 19.112V14.972C75.3547 14.66 75.2827 14.444 75.1387 14.324C74.9947 14.18 74.7428 14.108 74.3828 14.108H71.2147C68.3827 14.108 66.9668 12.764 66.9668 10.076V4.856C66.9668 2.216 68.4787 0.895996 71.5027 0.895996H75.8947C78.9187 0.895996 80.4307 2.216 80.4307 4.856V7.844H75.2827V5.576C75.2827 4.976 74.9587 4.676 74.3107 4.676H73.0867C72.4387 4.676 72.1147 4.976 72.1147 5.576V9.608C72.1147 9.92 72.1867 10.148 72.3307 10.292C72.4747 10.412 72.7267 10.472 73.0867 10.472H76.1827C77.7187 10.472 78.8228 10.808 79.4948 11.48C80.1668 12.128 80.5027 13.1 80.5027 14.396V19.796C80.5027 22.46 78.9908 23.792 75.9668 23.792H71.6107C68.5627 23.792 67.0387 22.46 67.0387 19.796V16.844H72.1867V19.112C72.1867 19.712 72.5107 20.012 73.1587 20.012H74.3828C75.0308 20.012 75.3547 19.712 75.3547 19.112Z" fill="black"/>
<path d="M95.4205 0.895996V4.676H91.2085V23.792H86.0605V4.676H81.8845V0.895996H95.4205Z" fill="black"/>
<path d="M107.651 23.792L106.859 19.652H101.639L100.847 23.792H95.7712L100.955 0.895996H107.507L112.835 23.792H107.651ZM102.359 15.908H106.103L104.231 6.224L102.359 15.908Z" fill="black"/>
<path d="M119.726 15.224V23.792H114.614V0.895996H124.046C127.07 0.895996 128.582 2.216 128.582 4.856V11.264C128.582 13.376 127.622 14.648 125.702 15.08L129.734 23.792H124.226L120.626 15.224H119.726ZM119.726 4.676V11.588H122.498C122.834 11.588 123.074 11.528 123.218 11.408C123.362 11.264 123.434 11.036 123.434 10.724V5.576C123.434 4.976 123.122 4.676 122.498 4.676H119.726Z" fill="black"/>
</svg>
